<?xml version="1.0" encoding="utf-8"?>
<!-- Generator: Adobe Illustrator 17.0.0, SVG Export Plug-In . SVG Version: 6.00 Build 0)  -->
<!DOCTYPE svg PUBLIC "-//W3C//DTD SVG 1.1//EN" "http://www.w3.org/Graphics/SVG/1.1/DTD/svg11.dtd">
<svg version="1.1" id="Layer_1" xmlns="http://www.w3.org/2000/svg" xmlns:xlink="http://www.w3.org/1999/xlink" x="0px" y="0px"
	 width="3249.455px" height="544px" viewBox="0 0 3249.455 544" enable-background="new 0 0 3249.455 544" xml:space="preserve">
<g>
	<g>
		<path fill="#FFFFFF" d="M853.625,205.928c5.796-38.882-15.985-70.388-48.658-70.388H646.034c-6.954,0-13.594,6.709-14.828,14.984
			l-35.839,240.084c-1.234,8.275,3.401,14.981,10.353,14.981h42.023c6.954,0,13.591-6.707,14.828-14.981l7.446-49.79
			c0.245-1.657,1.571-2.996,2.958-2.996l101.837-0.125c32.672,0,63.856-31.515,69.665-70.396L853.625,205.928z M784.608,216.461
			l-6.031,40.374c-1.127,7.354-7.023,13.308-13.211,13.308H683.12c-1.395,0-2.315-1.341-2.071-2.999l9.103-61.056
			c0.245-1.657,1.571-2.999,2.963-2.999h82.251C781.571,203.09,785.707,209.077,784.608,216.461"/>
		<path fill="#FFFFFF" d="M868.45,405.707c30.406,0.002,169.311,0.007,187.772,0.007c4.179,0,8.172-4.034,8.912-9.004l7.88-52.797
			c0.744-4.98-2.043-9.007-6.219-9.007H936.289c-1.393,0-2.321-1.341-2.073-2.999l3.873-25.969c0.248-1.652,1.578-2.999,2.973-2.999
			h98.435h6.525c4.182,0,8.173-4.034,8.914-9.007l6.976-46.748c0.744-4.975-2.043-9.002-6.225-9.002H950.728
			c-1.398,0-2.321-1.349-2.078-3.006l4.156-27.83c0.247-1.657,1.576-2.999,2.971-2.999h130.503c4.18,0,8.17-4.034,8.912-9.012
			l7.602-50.922c0.742-4.972-2.045-9.007-6.225-9.007h-6.527H908.799c-6.966,0-13.614,6.721-14.854,15.009l-35.865,240.281
			C856.842,398.991,861.486,405.707,868.45,405.707"/>
		<path fill="#FFFFFF" d="M1141.158,135.735c-6.957,0-13.591,6.704-14.828,14.981l-35.778,239.697
			c-1.237,8.272,3.402,14.978,10.353,14.978h37.989c6.957,0,13.594-6.706,14.828-14.978l14.244-95.414l26.032,101.684
			c1.265,5.311,5.222,8.708,10.136,8.708h50.303c4.914,0,9.886-3.397,12.737-8.708l56.463-102.178l-14.318,95.908
			c-1.234,8.272,3.401,14.978,10.353,14.978h37.992c6.952,0,13.594-6.706,14.83-14.978l35.778-239.697
			c1.234-8.277-3.399-14.981-10.355-14.981h-48.755c-4.916,0-9.886,3.402-12.737,8.71l-92.616,168.1
			c-1.445,2.695-4.954,1.959-5.702-1.194l-38.055-166.906c-1.267-5.309-5.22-8.71-10.134-8.71L1141.158,135.735L1141.158,135.735z"
			/>
		<path fill="#FFFFFF" d="M1640.287,135.65h-6.518h-188.793c-6.954,0-13.589,6.711-14.825,14.981l-5.786,38.766
			c-1.237,8.28,3.399,14.984,10.353,14.984h61.514c1.395,0,2.323,1.339,2.076,2.999l-27.335,183.113
			c-1.239,8.275,3.399,14.984,10.356,14.984h6.513h35.544c6.954,0,13.591-6.709,14.828-14.984l27.33-183.113
			c0.25-1.66,1.576-2.999,2.971-2.999h61.518c6.952,0,13.591-6.704,14.823-14.984l5.791-38.766
			C1651.88,142.362,1647.244,135.65,1640.287,135.65"/>
		<path fill="#FFFFFF" d="M1654.553,405.707c30.405,0.002,169.311,0.007,187.772,0.007c4.177,0,8.172-4.034,8.912-9.004l7.88-52.797
			c0.744-4.98-2.043-9.007-6.219-9.007h-130.506c-1.393,0-2.323-1.341-2.073-2.999l3.873-25.969
			c0.245-1.652,1.578-2.999,2.973-2.999h98.435h6.525c4.182,0,8.173-4.034,8.914-9.007l6.977-46.748
			c0.742-4.975-2.043-9.002-6.225-9.002h-104.96c-1.398,0-2.323-1.349-2.081-3.006l4.156-27.83c0.25-1.657,1.578-2.999,2.973-2.999
			h130.503c4.179,0,8.17-4.034,8.912-9.012l7.599-50.922c0.744-4.972-2.043-9.007-6.222-9.007h-6.528h-181.242
			c-6.966,0-13.617,6.721-14.856,15.009l-35.862,240.281C1642.944,398.991,1647.589,405.707,1654.553,405.707"/>
		<path fill="#FFFFFF" d="M2134.67,149.774c4.516-5.942,2.19-14.272-3.981-14.272h-6.518h-48.51c-7.109,0-12.26-0.877-17.622,6.176
			l-41.016,53.98c-1.43,1.887-4.059,1.449-5.122-0.854l-24.504-53.126c-1.788-3.878-5.232-6.176-9.264-6.176h-61.542
			c-6.169,0-10.983,8.331-8.242,14.272l51.787,112.267c1.454,3.154,0.821,7.423-1.576,10.569l-89.608,117.934
			c-4.516,5.944-2.19,14.274,3.978,14.274h6.52h48.511h6.517c4.026,0,8.157-2.298,11.107-6.176l45.318-59.648
			c1.435-1.887,4.06-1.451,5.122,0.851l27.121,58.797c1.788,3.878,5.23,6.176,9.262,6.176h61.542c6.171,0,10.983-8.331,8.242-14.274
			l-54.398-117.938c-1.454-3.144-0.818-7.413,1.576-10.567L2134.67,149.774z"/>
		<path fill="#FFFFFF" d="M2364.764,135.65h-6.515h-35.544c-6.957,0-13.589,6.711-14.828,14.981l-12.515,83.845
			c-0.242,1.65-1.573,2.991-2.963,2.991h-81.517c-1.387,0-2.312-1.341-2.063-2.991l12.513-83.845
			c1.229-8.269-3.401-14.981-10.355-14.981h-42.061c-6.952,0-13.591,6.711-14.823,14.981l-35.809,239.863
			c-1.234,8.275,3.402,14.984,10.355,14.984h35.544h6.518c6.953,0,13.591-6.709,14.823-14.984l12.742-85.351
			c0.248-1.655,1.576-2.996,2.966-2.996h81.512c1.393,0,2.321,1.341,2.071,2.996l-12.737,85.351
			c-1.239,8.275,3.394,14.984,10.35,14.984h42.059c6.956,0,13.594-6.709,14.831-14.984l35.806-239.863
			C2376.356,142.362,2371.721,135.65,2364.764,135.65"/>
		<path fill="#FFFFFF" d="M2555.717,254.08l-111.188,146.007c-2.869,3.376-6.671,5.327-10.386,5.327h-46.106
			c-6.951,0-11.635-6.707-10.459-14.978l34.052-239.697c1.176-8.277,7.762-14.981,14.716-14.981h41.779
			c6.953,0,11.637,6.704,10.462,14.981l-17.725,124.758c-0.469,3.289,2.93,4.067,5.353,1.224l102.566-135.647
			c5.294-6.212,10.169-5.316,16.896-5.316h46.743c6.956,0,11.643,6.704,10.465,14.981l-34.057,239.697
			c-1.176,8.272-7.765,14.978-14.716,14.978h-41.778c-6.957,0-11.638-6.707-10.465-14.978l19.204-135.137
			C2561.538,252.007,2558.133,251.235,2555.717,254.08"/>
		<path fill="#FFFFFF" d="M2907.21,145.247c3.343-3.897,1.907-9.853-2.377-9.853h-59.047c-6.725,0-11.613-0.898-16.934,5.33
			l-90.062,105.037c-4.381,3.827-3.521-2.52-3.521-2.52l13.823-92.588c1.237-8.272-3.396-14.981-10.353-14.981h-42.058
			c-6.954,0-13.594,6.709-14.828,14.981l-35.804,239.865c-1.234,8.272,3.402,14.98,10.353,14.98h42.056
			c6.954,0,13.594-6.709,14.828-14.98c4.799-32.127,13.734-93.729,13.694-93.458c0.413-2.843,3.57-4.138,4.743-1.928
			c22.108,41.686,9.486,18.658,57.887,105.315c1.887,3.378,5.12,5.332,8.833,5.332h65.572c4.279,0,7.497-5.959,5.32-9.856
			l-68.76-123.109c-0.625-1.112-0.383-2.744,0.573-3.86L2907.21,145.247z"/>
		<path fill="#FFFFFF" d="M2888.898,405.904h53.689c3.968,0,7.992-2.652,10.445-6.872c9.774-16.819,8.545-14.723,12.78-22.585
			h107.613l5.659,22.516c1.943,7.729,6.602,6.941,13.239,6.941h33.833h5.75c6.204,0,10.363,0.801,14.369-6.245
			c2.203-3.871,2.906-8.675,1.843-12.645l-63.46-238.572h-0.002c-4.095-14.277-15.198-13.884-15.198-13.884
			c-5.136,0-26.149-0.377-31.324-0.107l0.008,0.232c-0.053,0.005-0.094,0.012-0.145,0.018l-0.007-0.25
			c-11.38,0.521-19.782,3.198-26.369,13.991l-129.33,238.572C2877.196,395.531,2880.817,405.904,2888.898,405.904 M3038.882,240.795
			l18.26,70.86h-56.43L3038.882,240.795z"/>
	</g>
</g>
<g>
	<g>
		<g>
			<g>
				<g>
					<defs>
						<rect id="SVGID_1_" x="71.113" y="37.242" width="481.435" height="479.404"/>
					</defs>
					<clipPath id="SVGID_2_">
						<use xlink:href="#SVGID_1_"  overflow="visible"/>
					</clipPath>
					<g clip-path="url(#SVGID_2_)">
						<g>
							<defs>
								<rect id="SVGID_3_" x="71.113" y="37.242" width="481.435" height="479.404"/>
							</defs>
							<clipPath id="SVGID_4_">
								<use xlink:href="#SVGID_3_"  overflow="visible"/>
							</clipPath>
							<g transform="matrix(1 0 0 1 0 0)" clip-path="url(#SVGID_4_)">
								
									<image overflow="visible" enable-background="new    " width="234" height="233" xlink:href="EF807EE3.png"  transform="matrix(2.0574 0 0 2.0576 71.1133 37.2421)">
								</image>
							</g>
						</g>
					</g>
				</g>
				<g>
					<g>
						<defs>
							<path id="SVGID_5_" d="M90.411,262.992c0,117.651,95.722,213.026,213.802,213.026s213.802-95.375,213.802-213.026
								c0-117.653-95.722-213.028-213.802-213.028S90.411,145.339,90.411,262.992"/>
						</defs>
						<clipPath id="SVGID_6_">
							<use xlink:href="#SVGID_5_"  overflow="visible"/>
						</clipPath>
						
							<linearGradient id="SVGID_7_" gradientUnits="userSpaceOnUse" x1="3227.6501" y1="147.2331" x2="3229.6814" y2="147.2331" gradientTransform="matrix(210.5 0 0 210.5 -679329.9375 -30729.5781)">
							<stop  offset="0" style="stop-color:#EDEEF4"/>
							<stop  offset="0.5" style="stop-color:#CFD2E0"/>
							<stop  offset="1" style="stop-color:#AAB0C5"/>
						</linearGradient>
						<rect x="90.411" y="49.964" clip-path="url(#SVGID_6_)" fill="url(#SVGID_7_)" width="427.604" height="426.054"/>
					</g>
				</g>
				<g>
					
						<ellipse fill="none" stroke="#F2F2F2" stroke-width="1.4419" stroke-miterlimit="10" cx="304.213" cy="262.992" rx="213.802" ry="213.026"/>
					<path fill="#4D7DF0" d="M282.058,446.803c-82.791-9.785-148.729-74.641-160.162-156.919
						c55.194-22.276,172.009-69.418,199.53-80.513c8.105-3.268,14.417-5.568,18.945-6.901c4.569-1.343,7.62-2.017,9.206-1.914
						c3.833,0.376,7.134,2.137,9.83,5.204c2.736,3.043,5.574,8.278,8.597,15.668c3.088,7.553,4.922,13.373,5.375,17.399
						c0.329,4.081-0.416,7.48-2.263,10.143c-1.44,2.19-3.459,3.933-6.106,5.371c-1.06,0.92-3.573,2.188-7.455,3.754l-1.623,0.654
						l-2.133,0.859l-2.645,1.066l-3.244,1.308l-4.264,1.716l-16.996,6.854l-47.983,19.349l-52.011,20.97L282.058,446.803z"/>
					<path fill="none" stroke="#F2F2F2" stroke-width="1.4419" stroke-miterlimit="10" d="M282.058,446.803
						c-82.791-9.785-148.729-74.641-160.162-156.919c55.194-22.276,172.009-69.418,199.53-80.513
						c8.105-3.268,14.417-5.568,18.945-6.901c4.569-1.343,7.62-2.017,9.206-1.914c3.833,0.376,7.134,2.137,9.83,5.204
						c2.736,3.043,5.574,8.278,8.597,15.668c3.088,7.553,4.922,13.373,5.375,17.399c0.329,4.081-0.416,7.48-2.263,10.143
						c-1.44,2.19-3.459,3.933-6.106,5.371c-1.06,0.92-3.573,2.188-7.455,3.754l-1.623,0.654l-2.133,0.859l-2.645,1.066l-3.244,1.308
						l-4.264,1.716l-16.996,6.854l-47.983,19.349l-52.011,20.97L282.058,446.803z"/>
					<path fill="#544F4E" d="M303.836,80.676c101.443,0,183.709,82.267,183.709,183.709c0,88.509-62.631,162.412-145.976,179.819
						L300.387,343.01l65.361-26.355c9.598-3.87,17.98-7.437,25.187-10.715c7.211-3.279,12.456-5.763,15.696-7.569
						c9.929-5.858,17.137-11.8,21.567-17.862c4.453-6.127,6.817-13.415,7.171-21.837c0.534-12.613-6.265-36.64-18.42-62.278
						c-16.854-35.543-34.093-73.658-95.095-49.062l-197.945,79.815C141.127,143.551,215.153,80.676,303.836,80.676"/>
					<path fill="none" stroke="#F2F2F2" stroke-width="1.4419" stroke-miterlimit="10" d="M303.836,80.676
						c101.443,0,183.709,82.267,183.709,183.709c0,88.509-62.631,162.412-145.976,179.819L300.387,343.01l65.361-26.355
						c9.598-3.87,17.98-7.437,25.187-10.715c7.211-3.279,12.456-5.763,15.696-7.569c9.929-5.858,17.137-11.8,21.567-17.862
						c4.453-6.127,6.817-13.415,7.171-21.837c0.534-12.613-6.265-36.64-18.42-62.278c-16.854-35.543-34.093-73.658-95.095-49.062
						l-197.945,79.815C141.127,143.551,215.153,80.676,303.836,80.676z"/>
				</g>
			</g>
		</g>
	</g>
</g>
</svg>
